<svg xmlns="http://www.w3.org/2000/svg" viewBox="0 0 516.74 116.21"><defs><style>.cls-1{fill-rule:evenodd;}</style></defs><title>45</title><g id="Layer_2" data-name="Layer 2"><g id="Layer_1-2" data-name="Layer 1"><path id="_45" data-name="45" class="cls-1" d="M391.84,41.13a2.93,2.93,0,0,1,2.59-1.56H396V36.72H380.82l2,3.54h7a2.88,2.88,0,0,1,2.07.87Zm-74.12-30h-7.57a1.21,1.21,0,0,1,.06.38v.28A1.26,1.26,0,0,1,309,13h-1.73A1.26,1.26,0,0,1,306,11.79v-.28a1.21,1.21,0,0,1,.06-.38H273a1.21,1.21,0,0,1,.06.38v.28A1.26,1.26,0,0,1,271.79,13h-1.73a1.26,1.26,0,0,1-1.25-1.25v-.28a1.21,1.21,0,0,1,.06-.38h-6.19l0-.52h0V9.76a6.74,6.74,0,0,0-5.95,4.37,8.56,8.56,0,0,0-.58,3.09,8.44,8.44,0,0,0,.57,3.07,6.77,6.77,0,0,0,6.67,4.33l17.71.19.07,1.9h36.55V20.82h-4.45V15.75h4.45V11.13ZM323,26.71h53.25L328.76,12.45A21.69,21.69,0,0,0,323,11.17V26.71Zm-7.33-10a1.57,1.57,0,1,1-1.57,1.56,1.56,1.56,0,0,1,1.57-1.56Zm4.65,0a1.57,1.57,0,1,1-1.56,1.56,1.56,1.56,0,0,1,1.56-1.56Zm-115.74,50a1.46,1.46,0,0,1-1.33-1.44V56.79a1.45,1.45,0,0,1,1.45-1.44h3.48L208,52.92h-1.15a.28.28,0,0,1,0,.09c0,.69-.77,1.24-1.72,1.24s-1.72-.55-1.72-1.24a.49.49,0,0,1,0-.12h-.75a.62.62,0,0,1,0,.13c0,.69-.77,1.24-1.72,1.24s-1.72-.55-1.72-1.24a.77.77,0,0,1,0-.15L180,52.68a.87.87,0,0,1,.06.32c0,.69-.77,1.24-1.72,1.24s-1.72-.55-1.72-1.24a1,1,0,0,1,.07-.35h-.77l-.69,5.49-3.37.18a6.51,6.51,0,0,1,.24,1.1v.06h0l.65,5.78v.06h0v0H178v1.53h-5.35a5.64,5.64,0,0,1-4.92,4.6h-.05L152,73.25a5.65,5.65,0,0,1-6.22-5l-.66-5.84v-.06h0v0l-1,.7-4.93,2.23s-7.09,20.77-8.48,24.52-1.87,3.76-1,4.38c2,1.38,2.25,2.31,1.62,3-1.24,1.3-4.43,1.8-7.7,1.83-3.94,0-6.78,0-9-1.47s-4-3.79-4.18-5.62c-.34-3.49,7.67-25.87,8.93-30.77l-1.25-2.78c-.7-1.53.21-5.7.21-5.7L84.9,51.88C68.53,77.43,73.08,82.43,51.41,65.15l-22.86-.07C21.3,75,14.79,73.71,2.92,73.21L2.71,72,1,72,0,70.36,3,22H3a2.11,2.11,0,0,1,0-.26,2.39,2.39,0,0,1,2.59-2.13,2.39,2.39,0,0,1,2.59,2.13s0,.08,0,.12a2.74,2.74,0,0,1,2.25-1.07A2.68,2.68,0,0,1,12.74,22h3.59l.14,3.13L26.68,26,78.79,26l11.94,5.6h20.33V23.18L115,20.34v-6.4a1,1,0,0,1,1-1h.48a1,1,0,0,1,1,1V19c1.35-1.2,4.61-3.81,6-3.82l23.63-.39v-4h1.74a1,1,0,0,1-.15-.52,1.73,1.73,0,0,1,3.34,0,1,1,0,0,1-.14.52h17.58a1,1,0,0,1-.14-.52,1.72,1.72,0,0,1,3.33,0,1,1,0,0,1-.14.52h2.09V6.48h6.74v5.84l0,0,3.07-.68,3.33,0V6.79h4V8.21H194V6.79h2.26V8.21h2.26V6.79H201V8.21h2.26V6.79h2.47V8.21H208V6.79h2.39V8.21h2.26V6.79H215V8.21h2.26V6.79h2.32V8.21h2.26V6.79H224V8.21h2.26V6.79H230v4.38l4.59,0,11.88,4.79v9.14h12.31a8.19,8.19,0,0,1-3.55-4.19,9.85,9.85,0,0,1-.68-3.65,10.11,10.11,0,0,1,.68-3.66,8.29,8.29,0,0,1,7.42-5.39V7.34h-.33V6.05h.48V5.32h1.91v.73h.63v.8H267v-.8h.48V5.32h1.91v.73H270v.8h1.51v-.8H272V5.32h1.91v.73h.62v.8h1.39v-.8h.49V5.32h1.91v.73h.63v.8h1.73v-.8h.49V5.32h1.91v.73h.62v.8h1.67v-.8h.49V5.32h1.91v.73h.62v.8H290v-.8h.49V5.32h1.91v.73H293v.8h1.54v-.8h.49V5.32H297v.73h.62v.8h1.64v-.8h.48V5.32h1.91v.73h.63v.8h1.82v-.8h.49V5.32h1.91v.73h.63v.8h1.19v-.8h.49V5.32h1.91v.73h.63v.8h1.49v-.8h.49V5.32h1.91v.73h.62v.8h1.79v-.8h.49V5.32H320v.73h.62V7.34h-.17V9.18h.14c4.35,0,5,0,9.19,1.28L382,26.71h14.79v-.35a1,1,0,0,1,1-1H406a1,1,0,0,1,1,1v.22h2.85a.56.56,0,0,1,.56.56v.69h49.05V23.14l6.18-16.75C466.1,5,465,0,466.51,0l5.94,0a2.82,2.82,0,0,1,2.78,2.78l.91,24.6h2.25a1.24,1.24,0,0,1,.58.14,1.86,1.86,0,0,1,1.7-1.11h7.46A1.86,1.86,0,0,1,490,28.27v.29H514.8a2,2,0,0,1,1.94,1.94V35a2,2,0,0,1-1.94,1.95H490a1.89,1.89,0,0,1-1.85,1.6h-7.46a1.9,1.9,0,0,1-1.22-.46,1.25,1.25,0,0,1-1.06.59h-5.56v1.18a.56.56,0,0,1-.55.56h-8.83a.56.56,0,0,1-.55-.56V38.63h-2.16a1.25,1.25,0,0,1-1.25-1.25v-.66H410.34v.9a.55.55,0,0,1-.56.55H407a.55.55,0,0,1-.55-.55V36.45a1,1,0,0,1-.49.13h-1.74v4.53a2.9,2.9,0,0,1,.35,1.37v5a2.92,2.92,0,0,1-2.92,2.91H398.8v3.82h-9.24v-.58l-2,.89v3a1,1,0,0,1-.95,1H384a1,1,0,0,1-.78-.4.94.94,0,0,1-.77.4h-2.62a.92.92,0,0,1-.72-.34,1,1,0,0,1-.73.34h-2.61a1,1,0,0,1-.78-.4,1,1,0,0,1-.78.4h-2.61a.94.94,0,0,1-.8-.44,1,1,0,0,1-.84.49h-2.61a1,1,0,0,0-1.56,0h-2.61a1,1,0,0,1-.73-.34.92.92,0,0,1-.72.34h-2.62a.94.94,0,0,1-.77-.4,1,1,0,0,1-.78.4h-2.61a1,1,0,0,1-.86-.54,1,1,0,0,1-.86.53H350.6a1,1,0,0,1-.78-.41.93.93,0,0,1-.77.41h-2.62a1,1,0,0,1-.72-.34,1,1,0,0,1-.73.34h-2.61a.95.95,0,0,0-1.56,0H338.2a1,1,0,0,1-.81-.46,1,1,0,0,1-.81.46H334a1,1,0,0,1-.78-.41.93.93,0,0,1-.77.41h-2.62a1,1,0,0,1-.72-.34,1,1,0,0,1-.73.34H326.7V54.71h-35v-.32L289.6,56c-1.07.83-4.52,1.91-4.52-.28v-.69h-3l-1,.77c-1.07.82-4.51,1.9-4.51-.28V52.08a1.27,1.27,0,0,1,.05-.34l-8.52-.15-.87.77-17,.27a1,1,0,0,1,.08.37c0,.69-.77,1.24-1.72,1.24s-1.72-.55-1.72-1.24a.81.81,0,0,1,.06-.31l-1.12,0a.71.71,0,0,1,0,.29c0,.69-.77,1.24-1.72,1.24s-1.72-.55-1.72-1.24a1,1,0,0,1,0-.24l-1.43,0c.08,3.92-.24,8.39-.24,12.45a1.46,1.46,0,0,1-1.44,1.45h-.08v48.83h-.18v.35a.35.35,0,0,1-.34.35h-4.21a.35.35,0,0,1-.34-.35v-.35H209.48v.35a.35.35,0,0,1-.35.35h-4.2a.35.35,0,0,1-.35-.35v-.35h0V66.67Zm-57.27-5.92-.59.44a3.54,3.54,0,0,0,0,1.08v.06h0l.65,5.78a4.09,4.09,0,0,0,4.49,3.58l15.76-1.78h0a4,4,0,0,0,2.7-1.5,4.09,4.09,0,0,0,.87-3v0h0l-.65-5.79h0a4.27,4.27,0,0,0-.32-1.19l-1.72.09-13.11-.31c0,.43-.07.84-.07,1.21,0,5.19-.55,7.15,2.57,8.42,2.92,1.19,2.11,2.35-.37,1.43-4.36-1.6-4.36-3.31-4.36-9.64,0-.46,0-1,0-1.48l-.85,0c-.07,1.58-1.69,2.85-3.68,2.85a4.59,4.59,0,0,1-1.3-.19ZM65.66,37.5c1.6,0,3.6,1.73,3.12,3.26a46.24,46.24,0,0,1-5.16,9.13c-1.25,1.71-2.09,2.44-3,2.75-4,1.3-21.62.35-26.33-.74-3.29-.77-5.53-2-5.56-3.91-.05-3.8,2.41-10.8,6-10.77l31,.28Zm222.19-.78.21,3.05h1.39l-.19-3.05Zm2.92,0,1,2.57,31.61.14,4-2.71ZM471.29,17.09a1.5,1.5,0,0,1,1.62,1.33V20a1.5,1.5,0,0,1-1.62,1.33h-4.68A1.5,1.5,0,0,1,465,20V18.42a1.5,1.5,0,0,1,1.62-1.33Zm-3.11,19.48a1.69,1.69,0,1,1-.75,1.91,1.47,1.47,0,0,1,.75-1.91ZM505,33.22c3.3,0,6,.48,6,1.07s-2.68,1.08-6,1.08-6-.48-6-1.08,2.67-1.07,6-1.07Zm-1.15-3.48c3.67,0,6.64.34,6.64.76s-3,.77-6.64.77-6.63-.34-6.63-.77,3-.76,6.63-.76Zm9.87,3.4c.17,0,.31.28.31.63s-.14.62-.31.62-.31-.27-.31-.62.14-.63.31-.63Zm0-3.26c.17,0,.31.28.31.62s-.14.63-.31.63-.31-.28-.31-.63.14-.62.31-.62Z"/></g></g></svg>