<svg xmlns="http://www.w3.org/2000/svg" viewBox="0 0 168.08 111.1"><title>27</title><g id="Layer_2" data-name="Layer 2"><g id="Layer_1-2" data-name="Layer 1"><path id="_27" data-name="27" d="M167.18,6.9a1.36,1.36,0,0,0-1.35-1.21h-.09V5.41a.89.89,0,0,0-.79-.88l-.68-2.44a.74.74,0,0,0-.61-.53L159,.86a.74.74,0,0,0-.86.73V4.42l-.1.09a1,1,0,0,0-1,1v.19H71.09a3.17,3.17,0,0,1-1.84-.59L67.65,4a7.11,7.11,0,0,0-3.77-1.34,1.63,1.63,0,0,1-1.32-.77,3.72,3.72,0,0,0-6.14-.41,1.61,1.61,0,0,1-1.35.65L20.68,0a.31.31,0,0,0-.33.3V1a.3.3,0,0,0,.31.3h1.52V2a1.61,1.61,0,0,0-.57.21,18.49,18.49,0,0,0-1.7,1.41c-1.18,1-1.27,1.29-1.8,1.66a10.62,10.62,0,0,1-4,1.65c-.74.14-1.51.2-2.29.4A1.49,1.49,0,0,1,10.44,7,5.12,5.12,0,0,0,7.12,5.62a5.25,5.25,0,0,0-5.35,5.09A5.19,5.19,0,0,0,7,16a3,3,0,0,0,.42,0,4.13,4.13,0,0,1,2.85.7l.3.24a4.59,4.59,0,0,1,1.26,2.27,8,8,0,0,1,0,3.91c-.38,2-.79,4.06-2.43,5.1-.41.26-.7.33-2.5,1.32a4.35,4.35,0,0,0-1.47,1.23,1.85,1.85,0,0,0-.42,1,1.32,1.32,0,0,0,.28.95,1.52,1.52,0,0,0,.94.37,12.78,12.78,0,0,1,1.75.57,26.14,26.14,0,0,1,4,1.7,12.54,12.54,0,0,1,4.16,4A13,13,0,0,1,18,46.39a18.85,18.85,0,0,1-2.64,9.26c-.42.81-5.45,10.62-8.19,17.82-1.18,3.11-2.3,7.41-4.54,16C1.72,93.07,1,96.2.35,98.71a12,12,0,0,0-.2,4.74,4.8,4.8,0,0,0,.19.84,7.57,7.57,0,0,0,3.45,4,11.66,11.66,0,0,0,5.38,1.56c1,.11,2,.18,2.85.23v1H42.15a.85.85,0,0,0,.85-.85v0a.86.86,0,0,0-.85-.85h-.94A.27.27,0,0,1,41,109c.19-.57.56-1.68.7-2.27.27-1.13.59-2.49.94-4s1-4.62,2.2-10.58c1.39-7,1.28-7,2.08-10.71A73.57,73.57,0,0,1,49.27,72c1.55-4.47,2.4-6.81,4.72-8.89a14.88,14.88,0,0,1,6.87-3.27,23.83,23.83,0,0,1,5.66-.53,48.39,48.39,0,0,0,9,.74c14.93,0,20.26-4.42,20.26-11.72v0a14.15,14.15,0,0,1,1.38-6.21c.09-.19.18-.36.27-.53a8.81,8.81,0,0,1,2.17-3c1.85-1.51,3.89-1.53,7.56-1.7,3-.14,6-.45,9.07-.56,5.83-.21,8.75-.32,9.26-.38a32.93,32.93,0,0,0,7.17-1.74,17.33,17.33,0,0,1,6-1.1h26.43A2.14,2.14,0,0,0,167.19,31V21.64a1.81,1.81,0,0,1,.42-1.2,1.78,1.78,0,0,0,.47-1.2V8.46A1.84,1.84,0,0,0,167.18,6.9ZM7,13.32A2.52,2.52,0,1,1,9.48,10.8,2.52,2.52,0,0,1,7,13.32ZM76,57.73c-12.34,0-17-3.72-17-9.85,0-2.75.56-5.26,2.46-7.2a1.5,1.5,0,0,1,1.75-.26l.65.33a8.32,8.32,0,0,1,3.5,2.69A10,10,0,0,1,68.46,46c1.68,4.84,1.62,5,2.08,5.72a11.86,11.86,0,0,0,3.26,3.4,8.88,8.88,0,0,0,2.08,1.09c.65.27,1,.36,1.23.18a.44.44,0,0,0,.18-.54,1.28,1.28,0,0,0-.46-.49c-.41-.3-.59-.46-.89-.68A15.41,15.41,0,0,1,74,53a10.44,10.44,0,0,1-2.46-4.34,9.64,9.64,0,0,1,.05-5.48,10.85,10.85,0,0,1,2.93-4.44l0,0a5.92,5.92,0,0,1,4.63-1.83c11.82.67,13.93,5.35,13.93,11C93.05,54,88.58,57.73,76,57.73Z"/></g></g></svg>