<svg xmlns="http://www.w3.org/2000/svg" viewBox="0 0 384.77 148.16"><defs><style>.cls-1{fill-rule:evenodd;}</style></defs><title>2</title><g id="Layer_2" data-name="Layer 2"><g id="Layer_1-2" data-name="Layer 1"><path id="_2" data-name="2" class="cls-1" d="M277.22,27.82h20.15V19l-7.58-4.15-26.83,0-7.41,4.12h-7.27l-6.61-3.82H219.34L206.66,22.4H187v3.14l90.31-1.35-.13,3.63ZM382.48,38.74v.67c.83,0,1.6,0,2.29,0l-.08,3.09c0,1-.35,2.35-1.46,2.59v1.29H367.59c0,1,.21,4.59-.06,5.05,0,1.28-3.38,1.32-7.28,1.26.11.21.59.59.74,1.07.61,1.93,1.11,5.19-.88,6.35a4.86,4.86,0,0,1-1.91.14v2.28h-3.93v0h-.92V60.64c-1.21.63-2.4.17-2.62-1.94a4,4,0,0,1,.08-1.32,26.15,26.15,0,0,1-4.39-.07,4.08,4.08,0,0,1-.4-2.21h-1.26v1l-2.53.63-.12-1.65h-1.58v1l-2.52.63-.12-1.65h-1.82v1l-2.53.63-.12-1.65H331.8v1l-2.53.63-.12-1.65h-1.58v1.17l-.79.47v2.09h-6.45l0,4.3-.86,0a14.81,14.81,0,0,0,.33,6.08h1v17h-.66V87.9h.39a.47.47,0,0,1,.47.47v3.51a.47.47,0,0,1-.47.46h-.14v1.2h-.82v.32h-2.91v-.32H315v.32h-3.53v-.32h-1.66v.32h-.9V92.34h-.14a.47.47,0,0,1-.47-.46V88.37a.47.47,0,0,1,.47-.47V86.19h-.7v-17h.84a11.1,11.1,0,0,0-.1-6.09H308V58.84H302.6V56.61l-2.88.45V55.14h-1.06v1.45l-3,.47V55.14h-1.37v1.45l-3,.47V55.14h-1.08v1.45l-3,.47V55.14h-1.28v1.45l-3,.47V55.14h-1.4v1.45l-3,.47V55.14h-.55v1.92l-1.3.67h-4.69l-1.26-.16.07-3.51,1.42-.51,5.25.12h27.73v-.51h20.79v-.25L270.88,53c-11.4.29-19.89,6.85-24.64,6l0,.87c-3.84,1.35-9,7.17-12,13.2l.37,1.54-1.84.48c1.73,20.08,7.93,38,16.65,54.71.68,0,.81-.22,1.05.43l1,2.56c.24.63.22.93,0,1.11a4.8,4.8,0,0,1-1.44.77c-11.36,4.38-23,8-33.89,11.59-2.14.71-4.27,1.31-6.31,1.84-.72.19-.91-.18-1.15-.8l-1-2.55c-.36-1.39.38-2,1.51-2.37-5.85-19.69-12.6-38.89-16.22-59.76l-3,.16s-.45,2.17-.8,3.69c-.3,1.29-1.45,2-1.45,1.51l0-6.36,0,0-.27.06a6,6,0,0,1-.2,1.57c-.76,1.72-2.24,2.21-3.85,2.46-1.18.19-2.36.36-3.55.53-4.14.58-8.29,1-12.46,1.31a8.7,8.7,0,0,1-3.25-.31c-2.69-.82-4.13-3.33-7.28-2.78l-.25,0L141.8,118.89c1,.71,1.93,1.17,1.67,2.58a2,2,0,0,1-.82,1.13c-1.22,1-1.08,1.29-2.47.49-8.78-5-17.72-9.81-25.37-16.63l2.52-1.94c5.26-8.81,10.67-15.78,15.83-24.14,2.6-4.21,6-11,1.89-16.37l-.53-.17a76.91,76.91,0,0,0-7.61-1.45h-4.14L84.13,63c-4,.06-7,.9-10.86,1.93-18.13,4.77-35.9,7.87-47.17,24a135.47,135.47,0,0,0-9.19,14.89,5.33,5.33,0,0,1-3,2.54c-2.71,1-11.06,2.1-13.15.42-.69-.56-.81-.75-.69-2L5.75,47.59l-.44-.89C4.82,43.46,2.86,40.27,5.1,37c2.11-3.1,5.61-1.32,8.91-.87l75.13-.5c13.43-.09,23.16-5.82,33.63-14h7.7l.07-11.31,12.72-7.86,11.74,0V4.23h2.72V7.64h2.21l.53,1.76.37-1.77h2.94l.47,1.55.31-1.55h2.57l.53,1.76L168,7.63h2.56l.59,1.94.39-1.93h2.57l.53,1.76L175,7.63h2.57l.48,1.6.33-1.59H181l.53,1.76.36-1.77h2.57L185,9.39l.36-1.75h2.56l.54,1.76.36-1.77h2.56l.48,1.57.32-1.56h2.56l.53,1.76.37-1.77h2.56l.55,1.81.37-1.8h2.56l.54,1.76.36-1.77h2.57l.54,1.81.37-1.8h2.57l.53,1.76.36-1.77h2.57l.46,1.52.31-1.51h2.56l.53,1.76.37-1.77h2.56l.46,1.52.31-1.51h2.57l.53,1.76.36-1.77h2.57L226,9l.27-1.32h2.57l.53,1.76.36-1.77h2.68L232.86,9l.27-1.32h2.56l.53,1.76.37-1.77h2.94L240,9.19l.31-1.55h2.57l.53,1.76.37-1.77h2.56l.59,1.94.39-1.93h2.57l.53,1.76.36-1.77h2.57l.48,1.6.33-1.59h2.56l.54,1.76.36-1.77h2.57l.53,1.76.36-1.75h2.56l.54,1.76.36-1.77h2.56l.48,1.57.32-1.56h2.56L271,9.4l.37-1.77h2.56l.55,1.81.37-1.8h2.56l.54,1.76.36-1.77h2.56l.55,1.81.37-1.8h2.57l.53,1.76.36-1.77H287c.12-.81.32-1.76.58-2.78.71-2.79,1.65-5,2.09-4.85h9.37a19.21,19.21,0,0,1,2.16,7.63h.19L301.8,9l.27-1.32h2.57l.53,1.76h1.57l10,10.44h32c4.9,0,6.63,2.67,8.85,6.46h1.68a.88.88,0,0,1,.88.88v3a.85.85,0,0,1-.17.52c.9,1.78,1.76,3.55,2.58,5.27a2.58,2.58,0,0,1,1.07-.24h18.61a2.75,2.75,0,0,1,2.47,1.61,7.39,7.39,0,0,1-1,1.39l-1.22,0Zm-23,13.89h0ZM168.29,68.34a4.37,4.37,0,0,0,.5,2.2c.58.92.05,2.87-.24,4.22-.8,3.72.67,6.61,3.64,8.94,1,.81,1.43.77,1.68.74.73-.11-1.21-2.88-1.88-4-2-3.14-1.14-8.71.88-11.58l.46-.64,10-.14v.51h2.25l0,12.58a3.4,3.4,0,0,1-.62,2.36,16.7,16.7,0,0,1-5.85,1.3c-3.67.34-7,.77-10.72.88a9.69,9.69,0,0,1-4-.53,23.17,23.17,0,0,1-6.31-4.33l4.46-10.41c.29-.66.34-.54,1-.7A36.92,36.92,0,0,0,168,68.35ZM82.48,44.13h17.86a2.44,2.44,0,0,1,2.53,2.31V58.13a2.43,2.43,0,0,1-2.53,2.31H82.48A2.43,2.43,0,0,1,80,58.13V46.44a2.44,2.44,0,0,1,2.53-2.31Zm-62.93,12c.83,3.47.81,4.82.61,8.77,3.36.66,6.7,5.06,5.41,8.75a9.39,9.39,0,0,1,1.06-.4L67.88,61.16c2.66-.78,5.3-1,5.38-3.82l.38-14c.08-2.78-2.85-2.72-5.63-2.72H24.71c-2.77,0-5.39,1.6-5.34,4.37l.18,11.12ZM22,68a2.25,2.25,0,0,1,0,4.46A2.25,2.25,0,0,1,22,68Z"/></g></g></svg>