<svg xmlns="http://www.w3.org/2000/svg" viewBox="0 0 387.03 164.51"><defs><style>.cls-1{fill-rule:evenodd;}</style></defs><title>18</title><g id="Layer_2" data-name="Layer 2"><g id="Layer_1-2" data-name="Layer 1"><path id="_18" data-name="18" class="cls-1" d="M4.35,41.23l4.82.34a11.18,11.18,0,0,1,2.42.55l90.6-4.46-.34-2.91,15.77-1.31v-.29a.43.43,0,0,1,.43-.43h1.81a.43.43,0,0,1,.43.43v.07l5.2-.43V31.52l3.48-.13.1-1,1.21,0v-.65l2.84-.07V23.61a3.68,3.68,0,0,1,1-2.19v-3.2h3.93c3-1.92,6.61-3.38,8.38-3.39l4.41,0v-.69a.62.62,0,0,1,.62-.62h9.4a.62.62,0,0,1,.62.62v.63h2.06c.33-.62.76-1,1.23-1s.89.37,1.22,1h2v-.59a.62.62,0,0,1,.62-.62H185.9a.62.62,0,0,1,.62.62v.48h2.53a1.19,1.19,0,0,1,2.28,0H194v-.44a.62.62,0,0,1,.62-.62h17.22a.62.62,0,0,1,.62.62v.33l2.05,0a1.35,1.35,0,0,1,1-.69,1.32,1.32,0,0,1,1,.68l3.06,0v-.28a.62.62,0,0,1,.62-.62h17.22a.62.62,0,0,1,.62.62v.17h2.26a1.26,1.26,0,0,1,.94-.54,1.21,1.21,0,0,1,.92.53l5.16,0v-.4a.71.71,0,0,1,.71-.72h.1v-.27a.34.34,0,0,1,.34-.34h1.9a.35.35,0,0,1,.34.34v.27h.38a3,3,0,0,1,.36-2.3l5.91-9.46a2.87,2.87,0,0,1,4-.88L274,8.74a3,3,0,0,1,1,3.84h68.43C342.2,10.35,342,4.35,344.68,3a3.21,3.21,0,0,1,2.58-.09A1.86,1.86,0,0,1,349,1.8H356a1.81,1.81,0,0,1,1.84,1.84l-.38,6.2a1.9,1.9,0,0,1-.81,1.45v8.76a.64.64,0,0,1,.2,0h6.93c.56,0,.82.5,1,1,.37.95.69,1.88,1,2.8h18.07c5,0,3.48,13.93,0,13.93h-18.3a17.7,17.7,0,0,1-1.3,2.52c-.3.47-.46,1-1,1l-6.36.43a1,1,0,0,1-1-.87h-4.07V43.3a.48.48,0,0,1-.47.48h-1.44a.49.49,0,0,1-.48-.48V40.87h-2.24v4.87a2,2,0,0,1-1.95,1.95H333.87l-.45,2.77a1,1,0,0,1-1,.95l-18.6.15v.15a1.08,1.08,0,0,1-1.08,1.08h-.22a1.08,1.08,0,0,1-1.08-1.08v-.13h-.81v.12a1.08,1.08,0,0,1-1.09,1.08h-.22a1.08,1.08,0,0,1-1.08-1.08v-.1h-.81v.09a1.08,1.08,0,0,1-1.08,1.08h-.22a1.08,1.08,0,0,1-1.09-1.08v-.08h-.9v.07a1.08,1.08,0,0,1-1.09,1.08h-.21a1.08,1.08,0,0,1-1.09-1.08v-.05H301v0a1.08,1.08,0,0,1-1.08,1.08h-.22a1.08,1.08,0,0,1-1.08-1.08v0h-1v0a1.08,1.08,0,0,1-1.09,1.08h-.22a1.08,1.08,0,0,1-1.08-1.08h-1.1A1.08,1.08,0,0,1,293,52.79h-.22a1.09,1.09,0,0,1-1.08-1h-1a1.09,1.09,0,0,1-1.09,1h-.21a1.09,1.09,0,0,1-1.09-1l-14.07.12-9.42,4.88c-1.86,1-5.44,0-7.15-1.25l-4.12-2.94-1.49,1.6c2.42,30.92,12,59.89,25.61,87.76l1.24.15,1.34,3c-.48.53-1,1-1.43,1.58l-9.35,5v.81l-18.75,10-.28-.53L245,164.51l-.53-1.2c.18-.2.35-.41.53-.62A334,334,0,0,1,216,68.06L210.3,69.8l-.43.74h-3.36a4.15,4.15,0,0,1-2.42,2.56c-2.57.9-2.47,3.71-2.39,6.21.08,2.22-1,2.23-1.08,0-.09-2.87-.2-6.1,3.11-7.26a2.93,2.93,0,0,0,1.62-1.54H203.1V69.38L176,69.19v.06l-1.91.91H169.7L163,102.45c3,2.17,4.45,2,.39,6.24a9,9,0,0,1-5.29,2.84,35.83,35.83,0,0,1-16.8-1.85c-7-2.72-6.58-4.66-6.11-11.36a70.45,70.45,0,0,1,3-16.07c3.52-11.1,9.35-21.09,2.77-25.69-1.44-1-4.91-.77-6.33-1.81a3.89,3.89,0,0,1,0-1.3l-6.22.1-.05.94-7.4.6-.1-.65-7.58.54-.18.68-8.67.88-.11-1L36.64,85.77c-5.48,2.44-5.3,2.69-11.3,2.75l-11.74.13A4.22,4.22,0,0,1,11.32,90L5.07,90c-1.89,0-3.13-3.37-3.34-5.25C.15,70.6-.81,58.34.92,44.67c.24-1.88,1.55-3.57,3.43-3.44Zm198.75,7-12.43-.19a10.33,10.33,0,0,1,0,1.32c-8.3,2.57-4.44,10,.43,13.64.21.15-.16.42-.61.47-6.07-3.27-6.75-5.58-7.61-11.87-.16-1.17-1.41-2.4-1.86-3.7l-2.8,0a7.24,7.24,0,0,1-.43,2.07,7.32,7.32,0,0,1-1.34,1.62l.05,7h2.1l1.62,7.54-.91.09v.41l-3.15,0-.05.93,27,.08V48.26Zm-99.63,1L103,44.61l-2.94.12,0,.05a1.4,1.4,0,0,0-.24,1h0a.54.54,0,0,0,0,.08l.68,3.5a1.63,1.63,0,0,0,.21.53l2.79-.63Zm-4.65-4.49-49.29,2L52,55.16l.47-.1.62,3,1-.14.52,2.39-.9.09.38,2-.77.2,1.39,8,45-20.26a2.44,2.44,0,0,1-.28-.77l-.68-3.49a1,1,0,0,1,0-.15h0a2.46,2.46,0,0,1,.11-1.15ZM40.4,77l.3-5.36L35.6,47.41l-19.48.81a338.5,338.5,0,0,0,1.3,34.34l6.82-.3c5.08-.22,5.06-.24,9.69-2.33L40.4,77Z"/></g></g></svg>