<svg xmlns="http://www.w3.org/2000/svg" viewBox="0 0 440.04 88.3"><defs><style>.cls-1{fill-rule:evenodd;}</style></defs><title>17</title><g id="Layer_2" data-name="Layer 2"><g id="Layer_1-2" data-name="Layer 1"><path id="_17" data-name="17" class="cls-1" d="M265.09,15.38h1.74v.27h.92v-.27h1.73v.27h.87v-.27h1.73v.27h.81v-.27h1.74v.27h.77v-.27h1.73v.27h.92v-.27h1.74v.27h.86v-.27h1.74v.27h.8v-.27h1.74v.27h.83v-.27h1.73v.27h.92v-.27h1.74v.27H291v-.27h1.74v.27h.81v-.27h1.73v.27h.77v-.27h1.74v.27h.92v-.27h1.73v.27h.87v-.27h1.73v.27h.81v-.27h1.73v.27h.78v-.27h1.73v.27H309v-.27h1.74v.27h.86v-.27h1.74v.27h.81v-.27h1.73v.27h.83v-.27h1.73v.27h.92v-.27h1.74v.27H322v-.27h1.74v.27h.81v-.27h1.73v.27H327v-.27h1.73v.27h.92v-.27h1.74v.27h.86v-.27H334v.27h.81v-.27h1.73v.27h.77v-.27H339v.27H340v-.27h1.73v.27h.87v-.27h1.73v.27h.81v-.27h1.73v.27h.83v-.27h1.73v.27h.93v-.27h1.73v.27h.87v-.27h1.73v.27h.81v-.27h1.73v.27H358v-.27h1.73v.27h.92v-.27h1.74v.27h.86v-.27H365v.27h.81v-.27h1.73v.27h.77v-.27H370v.27h.93v-.27h1.73v.27h.87v-.27h1.73v.27h.81v-.27h1.73v.27h.83v-.27h1.73v.27h.93v-.27H383v.27h.18V13c0-.93,1.14-.76,1.75-.76v-.08c0-1.63,3.84-.91,4.81-.87s5.35-.3,5.42,1.38l0,1c1.18-.49,5-.31,5,1.18v1a.13.13,0,0,1,0,.06c1.23,2.26,1.28,3.25,2.74,3.56a6.63,6.63,0,0,0,3.84-.46c1.26-.56.38-.62.38-1.44h0c0-1.17,5.13-1.17,5.13,0h0c0,.53-.21.48.12,1.09a4.28,4.28,0,0,0,2,1.77h22.93c1.31,0,1.35.32,2.22,1.32l-.18,1.29.59,1.15-.32,1.22.25,1.13-.64,1,.21,1.25c-.23.27-.45.55-.68.83-.41.5-.44.46-1.09.46H403.11L403,34.37l12,0c2.87,0,3.61-.2,4.46,2.92a5.58,5.58,0,0,1-.31,4c-.95,2-1.82,1.56-3.83,1.6l-12.57.22C402.63,45,402,46,400.9,46.44c-1.18,2.06-1.83,5.15-4.37,5.16l-43.4.24c-1.91-.82-2.5-3.5-3.75-5.25l-.59-.89a7.07,7.07,0,0,1-1.08.48,21.92,21.92,0,0,1-7,.86,13.79,13.79,0,0,1-4.31-1l-.45,8.33c-.07,1-.2,1.47-.47,1.73-.84.79-3.55.35-4-1-.22-.7-1-3.86-1-3.86-4.24,0-7.17-.58-10,.12-1.9.47-3.63,1.87-6.11,3.3-.48.27.53,3-.58,3.32-.84.24-2.82-.92-3-.82l-13,8c-.08,2.9.54,3.22-2.28,4-3.41.89-7.46-15.32-8.35-17.92l-.93-.09-.61-4.21h-9.93s-1.05-.53-1.14-1.41a8.62,8.62,0,0,0-.44-1.82H232.49v1H196l-.33,1.45C182.34,45.66,175.85,58,163,58.58a20.63,20.63,0,0,1-9.76-1.49c-1.6.62-7,4.36-6.86,6.93.14,2.33.65,3.86-.48,4.68-1.64,1.17-2.35,0-3.48,2-1.66,2.94-4.22,7.15-4.95,11.17a5.89,5.89,0,0,0,0,1.95c.23,1.42.64,1.47-.22,2.93s-1.75,1.48-3,1.55c-3.71.2-21.13-6-17.93-12.41,3.88-7.76,3.39-11.39,13.85-19.19a29.71,29.71,0,0,0,2.64-4c2.18-4.8.17-8.72-4.81-9.94-1-.23-.93-.17-1.19-1.13-1.41-.17-4.63.5-4.87-.9-4.92,0-8.34-.64-11.68.07a72.7,72.7,0,0,0-6.6,3.86l-17.72-.19v2.14a1.13,1.13,0,0,1-1.1,1.14h0a1.12,1.12,0,0,1-1.09-1.1H77.43a7.37,7.37,0,0,0-4,3.08,23.56,23.56,0,0,0-1.49,4.7.8.8,0,0,1-1.05.74c-.31,0-.09,1.19-.09,1.19a2.88,2.88,0,0,1-2.29,1.4h-6l0,2.9c0,1.74-5.26,1.69-5.3-.07l-.07-2.78s-2.61.17-2.92.17S43.37,68.32,41.79,68.67s-2.46.18-2.73-.62-.65-5.49.73-7.07,2.53-3,2.53-3c-3.31,1.12-8.13,2.12-10,5.33-.95,1.59-2.16,3.89-2.64,4.61-.7,1.06-9,14.16-10,14.29a56.62,56.62,0,0,1-10.5,0A3.56,3.56,0,0,1,7.84,80c-.16-.63-.33-1.34-.52-2.13C4.55,66-.47,37.41,0,29.43c.24-3.47,4.7-2.67,11.33-2.67,2,0,4.13.23,5.24,1.93h67.3a1.09,1.09,0,0,1,.84-.41h0a1.12,1.12,0,0,1,1.1,1.13v.3L121,29.55a1.73,1.73,0,0,0,1.25-.37c.62-.59.21-.58,1.3-.58h3.54v-.79l21.79-1.64a82.35,82.35,0,0,1,17.9-6c1.85-.38,2.63-1.53,3.49-2.9V15.55h.1v-.26h1.73v.26h.81v-.26h1.74v.26h.82v-.26h1.74v.26h.92v-.26h-.07A2,2,0,0,1,176,13.48h0a2,2,0,0,1,2.06-1.81h6a2.21,2.21,0,0,1,1.48.55.54.54,0,0,1,.21-.05h1.72a.52.52,0,0,1,.52.53v1.15h4.28a.6.6,0,0,1,.6.59v1.11h.67v-.26h1.73v.26h.77v-.26h1.74v.26h.92v-.26h1.73v.26h.87v-.26h1.73v.26h.81v-.26h1.74v.26h.83v-.26h1.73v.26h.92v-.26h1.73v.26h.87v-.26h1.73v.26h.81v-.26H215v-.35h-6.19v-.26H207V12.87h1.78V11.66l-2-.36,0-4.79,6.68,0,3.95,3.14,3.5-.28v-1a.93.93,0,0,1,.93-.92h6.59a.94.94,0,0,1,.34.07l.35-.09L229.6.09,232.36,0,234,6.79V12.5h.67v2.88h1.12v.27h.93v-.27h1.73v.27h.87v-.27h1.73v.27h.81v-.27h1.73v.27h.77v-.27h1.74v.27H247v-.27h1.73v.27h.87v-.27h1.73v.27h.81v-.27h1.74v.27h.83v-.27h1.73v.27h.92v-.27h1.74v.27H260v-.27h1.74v.27h.81v-.27h1.73v.27h.82v-.27ZM20.68,48.18H33.35a1.06,1.06,0,0,1,1,1h0a1.06,1.06,0,0,1-1,1.06H20.68a1.06,1.06,0,0,1-1.05-1.06h0a1.06,1.06,0,0,1,1.05-1Zm327.79-31h-.76v.26H346v-.26h-.41v.26h-1.73v-.26h-.76v.26h-1.74v-.26h-1.09v.26h-1.73v-.26h-1.11v.26h-1.74v-.26h-.4v.26h-1.73v-.26h-.76v.26H331v-.26H330v.26h-1.73v-.26h-1.09v.26h-1.74v-.26H325v.26h-1.73v-.26h-.76v.26h-1.74v-.26h-1.09v.26h-1.73v-.26h-1.17v.26H315v-.26h-.4v.26h-1.74v-.26h-.76v.26H310.4v-.26h-1.09v.26h-1.73v-.26h-1.12v.26h-1.73v-.26h-.41v.26h-1.73v-.26h-.76v.26H300.1v-.26H299v.26h-1.73v-.26h-1.12v.26h-1.74v-.26H294v.26h-1.74v-.26h-.75v.26h-1.74v-.26H288.7v.26H287v-.26h-1.18v.26h-1.73v-.26h-.4v.26h-1.74v-.26h-.76v.26h-1.73v-.26h-1.09v.26h-1.73v-.26h-1.12v.26h-1.73v-.26h-.4v.26h-1.74v-.26h-.76v.26h-1.73v-.26H268v.26h-1.73v-.26h-1.18v.26H263.4v-.26H263v.26h-1.74v-.26h-.76v.26h-1.73v-.26h-1.09v.26H256v-.26h-1.18v.26H253v-.26h-.4v.26H250.9v-.26h-.76v.26h-1.73v-.26h-1.09v.26h-1.73v-.26h-1.12v.26h-1.73v-.26h-.41v.26H240.6v-.26h-.76v.26h-1.73v-.26H237v.26h-1.74v-.26H216.82v.17h-1.73v-.17H215v-.1h-.32v.27H213v-.27h-.76v.27h-1.73v-.27h-1.09v.27h-1.73v-.27h-1.18v.27h-1.73v-.27h-.41v.27h-1.73v-.27h-.76v.27H200.1v-.27H199v.27h-1.73v-.27h-1.12v.27h-1.73v-.27H194v.27h-1.73v-.27h-.76v.27H189.8v-.27h-1.09v.27H187v-.27h-1.09v.27h-1.74v-.27h-.4v.27H182v-.27h-.76v.27h-1.73v-.27h-1.09v.27h-1.73v-.27h-1.18v.27h-1.73v-.27h-.41v.27h-1.73v-.27H171l-.1.18v.09h0l-.53,1H348.46v-1.2Zm-190.79,31c.29,2.05.1,4.91,1,6a5.23,5.23,0,0,0,1.17,1.32c.62.35,1.11.21.7-.45-.93-1.48-1.76-4.45-.68-6.32,2.67-4.63,13.78-6,15.2,0,.75,3.11-2.92,6.66-8.19,7.93s-10.31-.89-10.85-3.14a5.3,5.3,0,0,1,1.68-5.3Zm135.53,2.57a11.12,11.12,0,0,1,1,3c.18,1.24.27,2.51.44,3.26s.62,1.18,1.8.52c2.95-1.63,7.49-2.88,6.81-6.67l-10-.09ZM185.25,15a2.22,2.22,0,0,1-1.17.33H185v.26h.24V15Zm-5.38.33v.26h.86v-.26Zm2.6,0v.26h.81v-.26Z"/></g></g></svg>