<svg xmlns="http://www.w3.org/2000/svg" viewBox="0 0 474.85 102.26"><defs><style>.cls-1{fill-rule:evenodd;}</style></defs><title>37</title><g id="Layer_2" data-name="Layer 2"><g id="Layer_1-2" data-name="Layer 1"><path id="_37" data-name="37" class="cls-1" d="M87.32,43.85a7.33,7.33,0,0,1,4.46,1.45,1.56,1.56,0,0,1,1-.45c1.84,0,2.58,3.86,1.6,3.86h-.27v1.45h43.5a4.88,4.88,0,0,1,1.72.44V45.44h-1.81V44h1.81v-4.6H153.3l.06-3.6h6.07v1.1h1.51V35.8h2.44v1.1h1.52V35.8h2.27V36.9h1.51V35.79H171V36.9h1.51V35.78H173V32.66h.44v-4h-2.56a1,1,0,0,1-1,.91H158.12a1,1,0,0,1-.92-.67h-.74A9.41,9.41,0,0,1,151.22,31v-.57H126V29.28H123.9a1.12,1.12,0,0,1-1.09.95h-1.42c-2.5,0-3.61-15.74,0-15.74h1.42a1.09,1.09,0,0,1,1.07.86H126v-.67h25V14.1a8.89,8.89,0,0,1,5.6,2h.58a1,1,0,0,1,1-1h11.76a1,1,0,0,1,1,1v0h2.48V15h7.79v1.1h7.82a4.31,4.31,0,0,1,1.23-2.48V3.39a.7.7,0,0,1,.7-.71h1.61V1.62c0-2.27,11.3-2,11.3,0V2.68h1.73a.71.71,0,0,1,.71.71v9.75a4.33,4.33,0,0,1,1.89,3.41h5.08V15h7.16v1.52h3c11.6-1.72,26.14-4.64,37.71-5.59h26.22c4.17.28,4.3,23.47,0,23.47H261c-11.69,0-26.47-3.94-38.2-5.7h-2.67v3.93h.3v3.12H236v5.64c68.21,0,138.66-.31,206.27-.4V38.88a53.7,53.7,0,0,1,17.3-.05V41h13.2c3,2.88,2.63,5.76,0,8.64l-13.2,0V50l-4,4.22h-9.47l-3.82-4.26v-.36c-39.16-.21-81.44-.7-121.77-.7.92,1.14.54,4.51.54,5.89h11.59V55h1.05c.12-.33.3-.54.5-.54.36,0,.64.64.64,1.42s-.28,1.42-.64,1.42-.42-.26-.54-.66h-1v.28h-8.89v1.6h-2.29v-1.6H321v3.41c0,2.94-1.72,4.09-4.37,4.16-1.24,2.7-1.68,4.21-3.78-.16l-10.37-.19c-.1,1-.33,2.84-.33,2.84a2,2,0,0,1-4,0s-.23-1.8-.33-2.84l-45.3,0c-7.47,0-15.47-.15-22.75,1.78a229.61,229.61,0,0,1-29,6.16v7.4l-30.25,3.82V75.2l-.94.12-.71,9.75h-2.57l.49-9.4h0a52.93,52.93,0,0,1-5.06,4.53C156,83.78,144,82.07,138.86,77.66c-.54.12-4,4.75-5,8.09-1.83,5.6-1.57,9.71-1.94,12.37-.34,2.42-1.47,3.31-3.74,3.75-4,.78-11.81.21-13.73-.27-2.36-.59-10.08-3.47-13.62-4.45s-8.53,0-11.28-1.35S80,88.31,78,86.93a24.15,24.15,0,0,1-3.14-2.72H49.34a2.8,2.8,0,0,1,.1.77V93.6a2.87,2.87,0,0,1-2.86,2.86H31.28a2.81,2.81,0,0,1-2.63,1.48l-18.88-.1c-1.78,0-7.34,3.71-9,2.14s.3-8.54.39-10.49L3,51.87c.19-3.78,1.14-6.68,4.82-6.68H25.5a6.5,6.5,0,0,1,3.93,1.32,7,7,0,0,1,5.65-2.66Zm101.75-15.2h-8.7v4h32.82V28.73h-5.27a4.61,4.61,0,0,1-4.43,3.16h-10a4.6,4.6,0,0,1-4.46-3.24ZM105.88,66c6-3.65,13.06-3.07,15.71,1.3s-.09,10.88-6.12,14.53-13.06,3.07-15.71-1.3.1-10.88,6.12-14.53Zm46.73.06h5.06a5.38,5.38,0,0,1,5.54,5.18v2.6c0,7.46-13.33,6.63-17.61,4.53-2.82-1.39-5.21-4.38-4.53-7.63a5.65,5.65,0,0,1,5.64-4.68H149a11.9,11.9,0,0,0-1.29,5.8c.32,5.42,6.43,6.38,7,5.11s-4.1-.8-4.81-5.08c-.35-2.15,1.08-4.17,2.68-5.83Zm147.05-1.92V65a1.89,1.89,0,0,1,1,0v-.91Zm.51,1.52A1.33,1.33,0,1,1,298.85,67a1.33,1.33,0,0,1,1.32-1.32Zm21.64-8.74v1.22h1.53V56.91Z"/></g></g></svg>